<mxfile host="app.diagrams.net" agent="Mozilla/5.0 (Windows NT 10.0; Win64; x64) AppleWebKit/537.36 (KHTML, like Gecko) Chrome/135.0.0.0 Safari/537.36" version="26.2.12">
  <diagram name="Page-1" id="mAMW22FSsP44i3EBZ2hD">
    <mxGraphModel dx="1606" dy="1031" grid="1" gridSize="10" guides="1" tooltips="1" connect="1" arrows="1" fold="1" page="1" pageScale="1" pageWidth="1700" pageHeight="1100" math="0" shadow="0">
      <root>
        <mxCell id="0" />
        <mxCell id="1" parent="0" />
        <mxCell id="2" value="User" style="whiteSpace=wrap;strokeWidth=2;" parent="1" vertex="1">
          <mxGeometry x="679" y="50" width="92" height="54" as="geometry" />
        </mxCell>
        <mxCell id="3" value="Manage User Profile" style="whiteSpace=wrap;strokeWidth=2;" parent="1" vertex="1">
          <mxGeometry x="393" y="264" width="202" height="54" as="geometry" />
        </mxCell>
        <mxCell id="4" value="Log Meals" style="whiteSpace=wrap;strokeWidth=2;" parent="1" vertex="1">
          <mxGeometry x="292" y="391" width="129" height="54" as="geometry" />
        </mxCell>
        <mxCell id="5" value="Change Diet Type" style="whiteSpace=wrap;strokeWidth=2;" parent="1" vertex="1">
          <mxGeometry x="539" y="391" width="184" height="54" as="geometry" />
        </mxCell>
        <mxCell id="6" value="End Day &amp; Save Prog." style="whiteSpace=wrap;strokeWidth=2;" parent="1" vertex="1">
          <mxGeometry x="250" y="517" width="212" height="54" as="geometry" />
        </mxCell>
        <mxCell id="7" value="Display Weekly Summary" style="whiteSpace=wrap;strokeWidth=2;" parent="1" vertex="1">
          <mxGeometry x="512" y="517" width="237" height="54" as="geometry" />
        </mxCell>
        <mxCell id="8" value="D1 user_data.txt" style="whiteSpace=wrap;strokeWidth=2;" parent="1" vertex="1">
          <mxGeometry x="266" y="644" width="180" height="54" as="geometry" />
        </mxCell>
        <mxCell id="9" value="1.4 End Day &amp; Save Prog." style="whiteSpace=wrap;strokeWidth=2;" parent="1" vertex="1">
          <mxGeometry x="511" y="644" width="240" height="54" as="geometry" />
        </mxCell>
        <mxCell id="10" value="D2 progress.txt" style="whiteSpace=wrap;strokeWidth=2;" parent="1" vertex="1">
          <mxGeometry x="546" y="770" width="169" height="54" as="geometry" />
        </mxCell>
        <mxCell id="11" value="User Profile Details" style="whiteSpace=wrap;strokeWidth=2;" parent="1" vertex="1">
          <mxGeometry x="711" y="264" width="197" height="54" as="geometry" />
        </mxCell>
        <mxCell id="12" value="User details, Activity level&#xa;Meal choices, New diet type, Current weight" style="curved=1;startArrow=none;endArrow=block;exitX=0;exitY=0.89;entryX=0.5;entryY=0.01;" parent="1" source="2" target="3" edge="1">
          <mxGeometry relative="1" as="geometry">
            <Array as="points">
              <mxPoint x="494" y="184" />
            </Array>
          </mxGeometry>
        </mxCell>
        <mxCell id="13" value="User profile" style="curved=1;startArrow=none;endArrow=block;exitX=0.21;exitY=1.01;entryX=0.5;entryY=0;" parent="1" source="3" target="4" edge="1">
          <mxGeometry relative="1" as="geometry">
            <Array as="points">
              <mxPoint x="356" y="355" />
            </Array>
          </mxGeometry>
        </mxCell>
        <mxCell id="14" value="User profile" style="curved=1;startArrow=none;endArrow=block;exitX=0.79;exitY=1.01;entryX=0.5;entryY=0;" parent="1" source="3" target="5" edge="1">
          <mxGeometry relative="1" as="geometry">
            <Array as="points">
              <mxPoint x="631" y="355" />
            </Array>
          </mxGeometry>
        </mxCell>
        <mxCell id="15" value="Meals" style="curved=1;startArrow=none;endArrow=block;exitX=0.5;exitY=1;entryX=0.5;entryY=0;" parent="1" source="4" target="6" edge="1">
          <mxGeometry relative="1" as="geometry">
            <Array as="points" />
          </mxGeometry>
        </mxCell>
        <mxCell id="16" value="Updated profile" style="curved=1;startArrow=none;endArrow=block;exitX=0.5;exitY=1;entryX=0.5;entryY=0;" parent="1" source="5" target="7" edge="1">
          <mxGeometry relative="1" as="geometry">
            <Array as="points" />
          </mxGeometry>
        </mxCell>
        <mxCell id="17" value="Daily progress" style="curved=1;startArrow=none;endArrow=block;exitX=0.5;exitY=1;entryX=0.5;entryY=-0.01;" parent="1" source="6" target="8" edge="1">
          <mxGeometry relative="1" as="geometry">
            <Array as="points" />
          </mxGeometry>
        </mxCell>
        <mxCell id="18" value="Daily progress" style="curved=1;startArrow=none;endArrow=block;exitX=0.5;exitY=1;entryX=0.5;entryY=-0.01;" parent="1" source="7" target="9" edge="1">
          <mxGeometry relative="1" as="geometry">
            <Array as="points" />
          </mxGeometry>
        </mxCell>
        <mxCell id="19" value="Daily progress" style="curved=1;startArrow=none;endArrow=block;exitX=0.5;exitY=0.99;entryX=0.5;entryY=0;" parent="1" source="9" target="10" edge="1">
          <mxGeometry relative="1" as="geometry">
            <Array as="points" />
          </mxGeometry>
        </mxCell>
        <mxCell id="20" value="Welcome, BMI, Calorie goal, Menu, Remaining calories,&#xa;Diet change confirmation, Daily summary, Weekly summary" style="curved=1;startArrow=none;endArrow=block;exitX=0.5;exitY=1;entryX=0.39;entryY=0.01;" parent="1" source="2" target="11" edge="1">
          <mxGeometry relative="1" as="geometry">
            <Array as="points">
              <mxPoint x="725" y="184" />
            </Array>
          </mxGeometry>
        </mxCell>
        <mxCell id="21" value="Display details" style="curved=1;startArrow=none;endArrow=block;exitX=0.61;exitY=0.01;entryX=0.97;entryY=1;" parent="1" source="11" target="2" edge="1">
          <mxGeometry relative="1" as="geometry">
            <Array as="points">
              <mxPoint x="895" y="184" />
            </Array>
          </mxGeometry>
        </mxCell>
      </root>
    </mxGraphModel>
  </diagram>
</mxfile>
